<svg width="32" height="32" viewBox="0 0 32 32" fill="none" xmlns="http://www.w3.org/2000/svg">
<rect x="4" y="4" width="24" height="24" rx="4" fill="url(#paint0_linear_2325_23103)"/>
<path d="M14.5439 12.3711H15.1377C16.507 16.1998 18.875 23.8866 18.875 24.0029H16.126L15.3252 21.3105H11.4912L10.6904 24.0029H8C8 23.8866 10.3094 16.1998 11.6787 12.3711H12.1826L12.1855 12.3633H14.542L14.5439 12.3711ZM22.5566 23.999H19.5898V12.3672H22.5566V23.999ZM12.1553 19.0811H14.6611L13.4072 14.8682L12.1553 19.0811ZM21.3877 7C21.3877 7.90982 22.1174 9.27456 23.8193 9.35059C22.6208 9.4255 21.3435 10.2376 21.3076 11.4229C21.3017 10.7271 20.6463 9.45194 18.875 9.27441C19.6045 9.19859 21.2256 8.66811 21.3877 7Z" fill="white"/>
<defs>
<linearGradient id="paint0_linear_2325_23103" x1="4" y1="2.57143" x2="31.3906" y2="10.1241" gradientUnits="userSpaceOnUse">
<stop stop-color="#C759E5"/>
<stop offset="1" stop-color="#705FE7"/>
</linearGradient>
</defs>
</svg>
