<svg width="24" height="24" viewBox="0 0 24 24" fill="none" xmlns="http://www.w3.org/2000/svg">
<path d="M3 8H2.25V8.75H3V8ZM12.75 8C12.75 7.58579 12.4142 7.25 12 7.25C11.5858 7.25 11.25 7.58579 11.25 8H12H12.75ZM12 12H11.25V12.3107L11.4697 12.5303L12 12ZM14.9697 16.0303C15.2626 16.3232 15.7374 16.3232 16.0303 16.0303C16.3232 15.7374 16.3232 15.2626 16.0303 14.9697L15.5 15.5L14.9697 16.0303ZM21 12H20.25C20.25 16.5563 16.5563 20.25 12 20.25V21V21.75C17.3848 21.75 21.75 17.3848 21.75 12H21ZM12 21V20.25C7.44365 20.25 3.75 16.5563 3.75 12H3H2.25C2.25 17.3848 6.61522 21.75 12 21.75V21ZM12 3V3.75C16.5563 3.75 20.25 7.44365 20.25 12H21H21.75C21.75 6.61522 17.3848 2.25 12 2.25V3ZM4.20404 7.5L4.85324 7.87554C6.28084 5.40766 8.94728 3.75 12 3.75V3V2.25C8.39018 2.25 5.23952 4.21213 3.55484 7.12446L4.20404 7.5ZM3 3H2.25V8H3H3.75V3H3ZM3 8V8.75H8V8V7.25H3V8ZM12 8H11.25V12H12H12.75V8H12ZM12 12L11.4697 12.5303L14.9697 16.0303L15.5 15.5L16.0303 14.9697L12.5303 11.4697L12 12Z" fill="#A185F4"/>
</svg>
