<svg width="32" height="32" viewBox="0 0 32 32" fill="none" xmlns="http://www.w3.org/2000/svg">
<path d="M8 15.7945V21.1425C8 22.2626 8 22.823 8.21799 23.2508C8.40973 23.6272 8.71547 23.9328 9.0918 24.1246C9.5192 24.3424 10.079 24.3424 11.1969 24.3424H20.8031C21.921 24.3424 22.48 24.3424 22.9074 24.1246C23.2837 23.9328 23.5905 23.6272 23.7822 23.2508C24 22.8234 24 22.2639 24 21.1459V15.7945C24 15.2602 23.9995 14.9929 23.9346 14.7442C23.877 14.5239 23.7825 14.3154 23.6546 14.1269C23.5102 13.9143 23.3096 13.738 22.9074 13.3861L18.1074 9.18611C17.3608 8.53283 16.9875 8.20635 16.5674 8.08211C16.1972 7.97263 15.8026 7.97263 15.4324 8.08211C15.0126 8.20626 14.6398 8.53242 13.8944 9.18472L9.09277 13.3861C8.69064 13.738 8.49004 13.9143 8.3457 14.1269C8.21779 14.3154 8.12255 14.5239 8.06497 14.7442C8 14.9929 8 15.2602 8 15.7945Z" stroke="#2A2823" stroke-width="1.8" stroke-linecap="round" stroke-linejoin="round"/>
</svg>
