<svg width="32" height="32" viewBox="0 0 32 32" fill="none" xmlns="http://www.w3.org/2000/svg">
<path d="M4.01489 24.6363V19.2117L22.0373 13.1295C22.0373 13.1295 23.4271 13.5181 23.8455 13.6227C26.6251 14.3997 27.9701 16.0436 27.9701 18.6289C27.9701 20.6912 26.7596 21.7223 25.056 22.4994L15.4171 26.9079C15.4171 26.9079 14.8792 27.1619 14.0722 27.1619C13.4296 27.1619 12.7272 26.9826 12.7272 26.9826L10.3146 26.3451L4.01489 24.6363Z" fill="#858585"/>
<g filter="url(#filter0_i_3015_709)">
<path d="M4 10.041L15.2678 20.7061L25.086 16.2977C26.7895 15.5205 28 14.4894 28 12.4271C28 9.82691 26.6551 8.19801 23.8755 7.4209C21.6339 6.77834 15.0586 5 15.0586 5L4 10.041Z" fill="url(#paint0_linear_3015_709)"/>
</g>
<g filter="url(#filter1_i_3015_709)">
<path d="M4 10.041V24.6364L10.3146 26.3452L10.2914 20.1831L12.8917 20.9003C15.4919 21.5729 17.0908 19.6899 17.0908 17.6276C17.0908 15.0274 15.7459 13.2938 12.9663 12.5168C10.7643 11.8709 4.23692 10.1001 4.0073 10.0378L4 10.041Z" fill="url(#paint1_linear_3015_709)"/>
</g>
<path fill-rule="evenodd" clip-rule="evenodd" d="M10.3146 26.3451L12.7273 26.9826C12.7273 26.9826 13.4297 27.1619 14.0722 27.1619C14.8792 27.1619 15.4172 26.9079 15.4172 26.9079L25.056 22.4994C26.7596 21.7223 27.9701 20.6912 27.9701 18.6289C27.9701 17.2336 27.5784 16.1126 26.7808 15.254C27.537 14.5835 28 13.7025 28 12.4271C28 9.82691 26.6551 8.19801 23.8755 7.4209C21.6339 6.77834 15.0586 5 15.0586 5L4 10.041V24.6364L10.3146 26.3452L10.3146 26.3451Z" fill="#976CE1" style="mix-blend-mode:soft-light"/>
<defs>
<filter id="filter0_i_3015_709" x="4" y="5" width="24" height="15.7061" filterUnits="userSpaceOnUse" color-interpolation-filters="sRGB">
<feFlood flood-opacity="0" result="BackgroundImageFix"/>
<feBlend mode="normal" in="SourceGraphic" in2="BackgroundImageFix" result="shape"/>
<feColorMatrix in="SourceAlpha" type="matrix" values="0 0 0 0 0 0 0 0 0 0 0 0 0 0 0 0 0 0 127 0" result="hardAlpha"/>
<feOffset/>
<feGaussianBlur stdDeviation="0.5"/>
<feComposite in2="hardAlpha" operator="arithmetic" k2="-1" k3="1"/>
<feColorMatrix type="matrix" values="0 0 0 0 1 0 0 0 0 1 0 0 0 0 1 0 0 0 0.79 0"/>
<feBlend mode="normal" in2="shape" result="effect1_innerShadow_3015_709"/>
</filter>
<filter id="filter1_i_3015_709" x="4" y="10.0378" width="13.0908" height="16.3074" filterUnits="userSpaceOnUse" color-interpolation-filters="sRGB">
<feFlood flood-opacity="0" result="BackgroundImageFix"/>
<feBlend mode="normal" in="SourceGraphic" in2="BackgroundImageFix" result="shape"/>
<feColorMatrix in="SourceAlpha" type="matrix" values="0 0 0 0 0 0 0 0 0 0 0 0 0 0 0 0 0 0 127 0" result="hardAlpha"/>
<feOffset/>
<feGaussianBlur stdDeviation="0.5"/>
<feComposite in2="hardAlpha" operator="arithmetic" k2="-1" k3="1"/>
<feColorMatrix type="matrix" values="0 0 0 0 1 0 0 0 0 1 0 0 0 0 1 0 0 0 0.25 0"/>
<feBlend mode="normal" in2="shape" result="effect1_innerShadow_3015_709"/>
</filter>
<linearGradient id="paint0_linear_3015_709" x1="11.4198" y1="2.80265" x2="18.5" y2="19.499" gradientUnits="userSpaceOnUse">
<stop stop-color="#F0F0F0"/>
<stop offset="0.523659" stop-color="#A8A8A8"/>
<stop offset="0.65362" stop-color="#8F8F8F"/>
<stop offset="0.925" stop-color="#E6CBCB"/>
<stop offset="1" stop-color="#8A8A8A"/>
</linearGradient>
<linearGradient id="paint1_linear_3015_709" x1="10.5" y1="20.5014" x2="4.5" y2="10.0014" gradientUnits="userSpaceOnUse">
<stop stop-color="#EDEDED"/>
<stop offset="0.9898" stop-color="#C7C7C7"/>
</linearGradient>
</defs>
</svg>
