<svg width="24" height="12" viewBox="0 0 24 12" fill="none" xmlns="http://www.w3.org/2000/svg">
<path d="M4.87267 4.13025H7.13539V6.49297H4.87228L4.87267 4.13025ZM14.3754 6.50508H12.0922V4.15797H14.3754V6.50508ZM2.27806 11.4922H0.00589864V9.12946H2.27806V11.4922ZM4.85537 3.95294V1.71402H7.14011V3.95373H4.85537V3.95294ZM12.095 1.69957H14.3726V3.95021H12.095V1.69957ZM7.33398 4.14235H9.51726V6.49219H7.33398V4.14235ZM9.71113 4.14235H11.9011V6.49532H9.71074L9.71113 4.14235ZM16.7785 4.1611V6.48633H14.5763V4.1611H16.7785ZM19.1431 6.50508H16.9582V4.15094H19.1431V6.50508ZM2.28474 8.94474H0V6.7023H2.28474V8.94474ZM2.46131 11.4699V9.1443H4.66425V11.4699H2.4617H2.46131ZM21.6052 11.5H19.4356V9.13727H21.6052V11.5ZM21.8136 9.12868H24V11.4719H21.8136V9.12868ZM7.32729 3.95685V1.71011H9.52473V3.95685H7.32729ZM9.72175 1.698H11.9078V3.94552H9.72135L9.72175 1.698ZM16.7651 1.70855V3.95802H14.5787V1.70855H16.7651ZM19.1423 3.95841H16.959V1.70777H19.1423V3.95841ZM4.66465 8.94474H2.47546V6.7023H4.66465V8.94474ZM21.6197 8.9463H19.4325V6.69215H21.6197V8.9463ZM23.9976 8.94474H21.8151V6.6941H23.9976V8.94474ZM4.63948 6.42814H2.5376C2.52029 5.2913 3.47194 4.30169 4.63948 4.2517V6.42814ZM19.4238 4.24077C20.6099 4.33918 21.5261 5.2706 21.5383 6.41448H19.4238V4.24077ZM10.0827 1.42619C10.7284 1.09346 11.2585 0.806808 11.8024 0.549837C11.9428 0.488133 12.1013 0.483446 12.2448 0.53734C12.7969 0.792745 13.329 1.08881 13.8366 1.42307L10.0827 1.42619ZM19.1525 6.71948V8.31833L17.6145 6.71948H19.1525ZM4.95486 6.7187H6.46452L4.95447 8.23475V6.7187H4.95486Z" fill="#1E1E1E"/>
</svg>
