<svg width="24" height="24" viewBox="0 0 24 24" fill="none" xmlns="http://www.w3.org/2000/svg">
<path d="M6 1H10V11L6 9V1Z" stroke="black" stroke-width="1.5" stroke-linejoin="round"/>
<rect x="10" y="1" width="4" height="10" stroke="black" stroke-width="1.5" stroke-linejoin="round"/>
<path d="M14 1H18V9L14 11V1Z" stroke="black" stroke-width="1.5" stroke-linejoin="round"/>
<path d="M7.08199 17.0781C6.9226 16.9235 7.00918 16.6441 7.22476 16.6173L10.2795 16.2373C10.3674 16.2264 10.4437 16.1686 10.4807 16.0843L11.7692 13.1551C11.8601 12.9483 12.1404 12.9483 12.2313 13.155L13.5198 16.0842C13.5568 16.1685 13.6326 16.2265 13.7205 16.2374L16.7754 16.6173C16.991 16.6441 17.0773 16.9236 16.9179 17.0782L14.6597 19.2685C14.5948 19.3315 14.5659 19.4253 14.5831 19.5163L15.1824 22.6803C15.2247 22.9036 14.9981 23.0766 14.8087 22.9654L12.1245 21.3893C12.0473 21.344 11.9535 21.3442 11.8763 21.3896L9.1918 22.965C9.00236 23.0762 8.77533 22.9035 8.81764 22.6802L9.41706 19.5165C9.4343 19.4255 9.40545 19.3315 9.34049 19.2685L7.08199 17.0781Z" stroke="#2A2823" stroke-width="1.5" stroke-linecap="round" stroke-linejoin="round"/>
</svg>
