<svg width="24" height="24" viewBox="0 0 24 24" fill="none" xmlns="http://www.w3.org/2000/svg">
<path fill-rule="evenodd" clip-rule="evenodd" d="M20.4801 9.73432C20.1178 9.95478 19.6917 10.2103 19.2454 10.4775C19.2614 10.6888 19.2614 10.9009 19.2454 11.1122L22 10.9218C22 10.9218 21.5185 13.3151 19.8879 13.1047L18.6868 12.9377C18.5858 13.1117 18.4737 13.2791 18.3513 13.4387L20.9129 14.6747C20.9129 14.6747 19.4266 16.3749 18.2171 15.4613C17.8983 15.2208 17.5125 14.9252 17.1149 14.6262C16.9071 14.7725 16.6902 14.9058 16.4657 15.0254L18.0191 16.8626C18.0191 16.8626 16.0916 17.7561 15.4038 16.5118C15.2629 16.258 15.1002 15.959 14.9307 15.6467C14.6233 15.7364 14.3114 15.8099 13.9963 15.8672C14.4207 16.729 14.9374 17.7812 15.2478 18.4208C15.6672 19.2826 15.1203 19.9875 14.0533 20.749L13.2515 18.0066L12.7885 18.1302L13.2817 21.2618C12.9042 21.4973 12.4932 21.7411 12.0537 22C11.6007 21.7896 11.173 21.5741 10.7838 21.3536L11.2652 18.035L10.8005 17.9265L9.99027 20.8543C8.89985 20.0877 8.34457 19.2693 8.78745 18.4108L10.0943 15.8872C9.74791 15.8271 9.40515 15.7479 9.06761 15.65C8.89985 15.964 8.73209 16.2613 8.59285 16.5169C7.90673 17.7611 5.97752 16.8676 5.97752 16.8676L7.53263 15.0304C7.30867 14.9093 7.09191 14.7755 6.88341 14.6296C6.48582 14.9352 6.09998 15.2308 5.78124 15.4646C4.57172 16.3782 3.08371 14.678 3.08371 14.678L5.64704 13.4404C5.52479 13.2806 5.41275 13.1132 5.31153 12.9394C4.87703 12.9995 4.46267 13.0546 4.10871 13.1064C2.47811 13.3168 2 10.9201 2 10.9201L4.75457 11.1105C4.73863 10.8993 4.73863 10.6871 4.75457 10.4759C4.30331 10.207 3.8772 9.95144 3.51485 9.73432C1.81714 8.70383 3.1894 6.08668 3.1894 6.08668L7.93021 10.4408C7.1384 11.1874 7.44875 12.8809 8.84281 12.8809C10.8039 12.8809 10.715 10.0917 8.87469 10.0917C8.75893 10.0912 8.64353 10.1041 8.53078 10.1301L8.3798 9.64914L9.36957 9.11302L9.25717 8.79068C9.25717 8.79068 8.38316 8.73055 7.8715 9.25832L7.45546 7.20402L11.7131 7.67835L11.1411 8.62032L12.0218 10.4575L12.9025 8.62032L12.3389 7.67835L16.365 7.1322L16.1721 9.25832C15.7443 8.72053 14.7512 8.79068 14.7512 8.79068L14.6388 9.11302L15.694 9.67085L15.5263 10.1301C15.4117 10.1049 15.2947 10.092 15.1773 10.0917C13.332 10.0917 13.2481 12.8809 15.2075 12.8809C16.6167 12.8809 16.9237 11.154 16.0966 10.4191L20.8156 6.07666C20.8156 6.07666 22.1778 8.70049 20.4801 9.73432ZM10.5959 6.4775C8.44858 3.71171 10.9649 3.26745 10.9649 3.26745L12.0034 4.85076L13.0887 3.24907C13.0887 3.24907 15.4373 3.70169 13.5786 6.48919L10.5959 6.4775ZM11.2669 2.46911C11.5403 1.81607 12.4848 1.89958 12.8287 2.38393L12.0034 3.76014L11.2669 2.46911Z" fill="#1E1E1E"/>
</svg>
