<svg width="24" height="24" viewBox="0 0 24 24" fill="none" xmlns="http://www.w3.org/2000/svg">
<rect width="24" height="24" fill="transparent"/>
<path fill-rule="evenodd" clip-rule="evenodd" d="M8.69549 3H9.04307H15.6018H15.9475L16.0696 3.32344L22.4913 20.337L22.7467 21.0136H22.0235H16.1892H15.811L15.7081 20.6497L15.2237 18.9383H9.45373L9.12239 20.6107L9.04258 21.0136H8.63192H2.71927H2L2.2506 20.3394L8.5744 3.3258L8.69549 3ZM9.39064 4L3.43853 20.0136H8.22126L8.5526 18.3411L8.63241 17.9383H9.04307H15.6018H15.9799L16.0829 18.3021L16.5673 20.0136H21.3004L15.2561 4H9.39064ZM9.83268 5.67994L10.6456 6.5693L16.2646 12.7169L16.7994 13.302L16.0409 13.5326L14.0943 14.1244L14.4677 15.1779L14.6325 15.643L14.1696 15.8139L12.897 16.2838L12.4354 16.4543L12.2576 15.9954L11.8206 14.8677L10.0563 15.4297L9.37188 15.6478L9.40505 14.9302L9.77704 6.88354L9.83268 5.67994ZM10.7203 8.13332L10.4372 14.2589L11.9651 13.7721L12.4132 13.6293L12.5831 14.0678L13.0122 15.1753L13.3603 15.0468L12.9769 13.9652L12.8021 13.472L13.3028 13.3198L14.9916 12.8064L10.7203 8.13332Z" fill="black"/>
</svg>
