<svg width="653" height="108" viewBox="0 0 653 108" fill="none" xmlns="http://www.w3.org/2000/svg">
<g clip-path="url(#clip0_9309_9062)">
<path d="M102.006 54.8504L56.2906 75.4996C52.9273 77.6434 48.5231 78.459 43.218 77.0531L30.6191 73.6354V103.695L42.3558 106.756C44.5126 107.273 46.7177 107.562 48.9348 107.618C51.1708 107.656 53.3918 107.247 55.4673 106.414L102.22 85.0303C110.508 81.232 116.372 76.2297 116.372 66.2252C116.372 59.3976 114.4 53.9206 110.493 49.7495C108.013 51.8293 104.98 53.5721 102.006 54.8504Z" fill="#6E00C6"/>
<path d="M0.0849609 24.4651L53.6965 0C53.6965 0 85.5431 8.59858 96.4175 11.7056C109.871 15.5039 116.434 23.4344 116.434 36.0255C116.434 46.03 110.562 51.04 102.282 54.8305L54.6907 76.2221L0.0849609 24.4651Z" fill="url(#paint0_linear_9309_9062)"/>
<path d="M0.0854492 95.2835V24.4675C0.0854492 24.4675 32.7088 33.2681 43.5832 36.3751C57.0365 40.1656 63.5922 48.6243 63.5922 61.2309C63.5922 71.2354 55.8248 80.3777 43.2337 77.0999L30.6271 73.6356V103.696L0.0854492 95.2835Z" fill="#28E6A5"/>
<path d="M487.159 27.6755H471.065L444.391 52.7644V27.6755H431.746V84.9294H444.391V68.6178L454.279 59.1958L476.805 84.945H492.907L463.018 50.6672L487.159 27.6755Z" fill="black"/>
<path d="M374.71 66.9944V27.6755H362.064V84.9294H374.71L406.448 45.6106V84.9294H419.093V27.6755H406.448L374.71 66.9944Z" fill="black"/>
<path d="M543.303 27.6755L511.34 66.9944V27.6755H498.912V84.9294H511.34L543.303 45.6106V84.9294H555.956V27.6755H543.303Z" fill="black"/>
<path d="M204.207 27.6755H167.839V84.9294H180.493V66.2875H204.207C215.702 66.2875 223.291 57.5491 223.291 46.9776C223.291 36.4061 215.935 27.6755 204.207 27.6755ZM202.824 55.7316H180.493V38.2548H202.824C208.347 38.2548 211.562 42.1385 211.562 46.9932C211.562 51.8478 208.347 55.7316 202.824 55.7316Z" fill="black"/>
<path d="M258.291 57.1297L239.377 27.6755H224.836L251.323 69.2003L242.003 84.9294H255.735L289.337 27.6755H275.605L258.291 57.1297Z" fill="black"/>
<path d="M344.766 54.8072C348.215 52.0498 350.056 47.6845 350.056 42.8531C350.056 34.806 344.075 27.6755 335.336 27.6755H295.839V85.1547H336.719C346.607 85.1547 352.58 77.5737 352.58 69.0605C352.616 66.2128 351.915 63.4042 350.546 60.907C349.177 58.4097 347.186 56.3086 344.766 54.8072ZM308.484 38.2548H332.222C333.049 38.2111 333.877 38.342 334.65 38.6389C335.424 38.9357 336.127 39.3919 336.713 39.9779C337.298 40.5638 337.755 41.2664 338.052 42.0401C338.348 42.8138 338.479 43.6412 338.436 44.4687C338.436 47.9175 336.369 50.6827 332.222 50.6827H308.484V38.2548ZM333.597 74.3502H308.484V60.0969H333.597C338.203 60.0969 340.727 63.3126 340.727 67.2274C340.761 68.1725 340.599 69.1144 340.253 69.9944C339.906 70.8743 339.382 71.6734 338.713 72.3418C338.044 73.0101 337.244 73.5334 336.364 73.879C335.484 74.2245 334.542 74.3849 333.597 74.3502Z" fill="black"/>
</g>
<path d="M631.357 14.6389H611.125V12.4793C611.125 12.4793 613.829 11.3497 621.247 11.3497C628.665 11.3497 631.368 12.4793 631.368 12.4793V14.6389H631.357Z" fill="#662900"/>
<path d="M632.016 14.6391H610.466V20.3093H632.016V14.6391Z" fill="black"/>
<path d="M632.016 25.9904H610.466V31.6606H632.016V25.9904Z" fill="black"/>
<path d="M632.016 20.309H610.466V25.9791H632.016V20.309Z" fill="#662900"/>
<mask id="mask0_9309_9062" style="mask-type:luminance" maskUnits="userSpaceOnUse" x="599" y="12" width="54" height="84">
<path d="M611.113 12.4797L599.505 43.4996L630.038 95.683L652.527 82.9472L611.113 12.4797Z" fill="white"/>
</mask>
<g mask="url(#mask0_9309_9062)">
<path d="M610.404 12.6731L606.175 15.1138L665.318 115.805L669.547 113.364L610.404 12.6731Z" fill="black"/>
<path d="M606.18 15.1131L601.952 17.5538L661.094 118.245L665.323 115.804L606.18 15.1131Z" fill="#FD7A12"/>
<path d="M611.034 12.3246L610.406 12.6868L669.549 113.378L670.176 113.016L611.034 12.3246Z" fill="#FD7A12"/>
<path d="M589.276 24.8701L588.649 25.2323L647.791 125.924L648.419 125.561L589.276 24.8701Z" fill="#FD7A12"/>
<path d="M601.958 17.5535L597.729 19.9942L656.872 120.685L661.101 118.245L601.958 17.5535Z" fill="black"/>
<path d="M597.719 19.9976L593.491 22.4383L652.633 123.13L656.862 120.689L597.719 19.9976Z" fill="#FD7A12"/>
<path d="M593.498 22.4373L589.269 24.878L648.412 125.569L652.64 123.129L593.498 22.4373Z" fill="black"/>
</g>
<mask id="mask1_9309_9062" style="mask-type:luminance" maskUnits="userSpaceOnUse" x="590" y="12" width="53" height="84">
<path d="M631.403 12.4797L643 43.4996L612.489 95.683L590 82.9472L631.403 12.4797Z" fill="white"/>
</mask>
<g mask="url(#mask1_9309_9062)">
<path d="M632.132 12.6763L572.99 113.367L577.218 115.808L636.361 15.117L632.132 12.6763Z" fill="black"/>
<path d="M636.36 15.124L577.217 115.815L581.446 118.256L640.589 17.5647L636.36 15.124Z" fill="#FD7A12"/>
<path d="M631.498 12.3287L572.355 113.02L572.983 113.382L632.125 12.6909L631.498 12.3287Z" fill="#FD7A12"/>
<path d="M653.246 24.8813L594.104 125.573L594.731 125.935L653.874 25.2435L653.246 24.8813Z" fill="#FD7A12"/>
<path d="M640.575 17.5615L581.432 118.253L585.661 120.693L644.803 20.0022L640.575 17.5615Z" fill="black"/>
<path d="M644.801 19.9982L585.659 120.689L589.887 123.13L649.03 22.4389L644.801 19.9982Z" fill="#FD7A12"/>
<path d="M649.028 22.4349L589.886 123.126L594.114 125.567L653.257 24.8756L649.028 22.4349Z" fill="black"/>
</g>
<defs>
<linearGradient id="paint0_linear_9309_9062" x1="40.1493" y1="-12.5522" x2="78.5982" y2="71.8335" gradientUnits="userSpaceOnUse">
<stop offset="0.04" stop-color="#4B009B"/>
<stop offset="0.77" stop-color="#AA23FF"/>
</linearGradient>
<clipPath id="clip0_9309_9062">
<rect width="555.956" height="107.618" fill="white"/>
</clipPath>
</defs>
</svg>
